<svg preserveAspectRatio="none" width="100%" height="100%" overflow="visible" style="display: block;" viewBox="0 0 14.666 12" fill="none" xmlns="http://www.w3.org/2000/svg">
<path id="Union" d="M7.33301 0C8.0693 0 8.66584 0.596777 8.66602 1.33301C8.66602 1.68647 8.52914 2.00845 8.30469 2.24707L10.0537 4.43359C10.1027 4.49472 10.1876 4.51342 10.2578 4.47852L12.0254 3.59473C12.0085 3.5102 12 3.42247 12 3.33301C12.0002 2.59678 12.5967 2 13.333 2C14.0693 2 14.6658 2.59678 14.666 3.33301C14.666 3.9676 14.2227 4.4991 13.6289 4.63379L12.4268 11.0479C12.3233 11.5997 11.8407 12 11.2793 12H3.38672C2.8253 12 2.34272 11.5997 2.23926 11.0479L1.03711 4.63379C0.443249 4.49911 0 3.96761 0 3.33301C0.000175989 2.59678 0.596736 2 1.33301 2C2.06928 2 2.66584 2.59678 2.66602 3.33301C2.66602 3.42248 2.65743 3.51019 2.64062 3.59473L4.4082 4.47852C4.47836 4.51344 4.56324 4.49471 4.6123 4.43359L6.3623 2.24707C6.1377 2.00844 6 1.68655 6 1.33301C6.00018 0.596777 6.59672 1.12726e-07 7.33301 0ZM7.33301 6.66699C6.59661 6.66699 6 7.2636 6 8C6 8.7364 6.59661 9.33301 7.33301 9.33301C8.06941 9.33301 8.66602 8.7364 8.66602 8C8.66602 7.2636 8.06941 6.66699 7.33301 6.66699Z" fill="var(--fill-0, #C9D2DB)"/>
</svg>
